mtllib stars.mtl
g Stern

# Vertex Positions:
v -0.02501 -2.5 0.12249
v -3.43851 0 2.09339
v -10.02501 0 0.12249
v -3.43851 -0 -1.84846
v -5.02501 -0 -8.53791
v -0.02501 -0 -3.81947
v 4.97499 -0 -8.53791
v 3.38849 -0 -1.84841
v 9.97499 0 0.12249
v 3.38849 0 2.09339
v 4.97499 0 8.78289
v -0.02501 0 4.06434
v -5.02501 0 8.78283
v -0.02501 2.5 0.12244

# Vertex Texture Coordinates:
vt 0.32653 0.28292 
vt 0.19664 0.35791 
vt 0.00098 0.28292 
vt 0.19664 0.20792 
vt 0.16375 0.00098 
vt 0.32653 0.13293 
vt 0.4893 0.00098 
vt 0.45641 0.20792 
vt 0.65208 0.28292 
vt 0.45641 0.35791 
vt 0.4893 0.56486 
vt 0.32653 0.4329 
vt 0.16375 0.56485 
vt 0.61934 0.79208 
vt 0.48946 0.71708 
vt 0.81501 0.71708 
vt 0.61934 0.64209 
vt 0.65223 0.43514 
vt 0.48946 0.56709 
vt 0.32668 0.43514 
vt 0.35957 0.64209 
vt 0.16391 0.71708 
vt 0.35957 0.79208 
vt 0.32668 0.99902 
vt 0.48946 0.86707 
vt 0.65223 0.99902 

# Vertex Surface Normals:
vn -0.18842 -0.75367 0.62967
vn -0.18842 -0.75367 0.62967
vn -0.18842 -0.75367 0.62967
vn -0.18842 -0.75368 -0.62966
vn -0.18842 -0.75368 -0.62966
vn -0.18842 -0.75368 -0.62966
vn -0.63954 -0.75365 0.15168
vn -0.63954 -0.75365 0.15168
vn -0.63954 -0.75365 0.15168
vn 0.45108 -0.75369 -0.47799
vn 0.45108 -0.75369 -0.47799
vn 0.45108 -0.75369 -0.47799
vn -0.45108 -0.75369 -0.47799
vn -0.45108 -0.75369 -0.47799
vn -0.45108 -0.75369 -0.47799
vn 0.63954 -0.75365 0.15168
vn 0.63954 -0.75365 0.15168
vn 0.63954 -0.75365 0.15168
vn 0.18842 -0.75367 -0.62967
vn 0.18842 -0.75367 -0.62967
vn 0.18842 -0.75367 -0.62967
vn 0.18842 -0.75367 0.62967
vn 0.18842 -0.75367 0.62967
vn 0.18842 -0.75367 0.62967
vn 0.63954 -0.75365 -0.15167
vn 0.63954 -0.75365 -0.15167
vn 0.63954 -0.75365 -0.15167
vn -0.45109 -0.75368 0.478
vn -0.45109 -0.75368 0.478
vn -0.45109 -0.75368 0.478
vn 0.45109 -0.75368 0.478
vn 0.45109 -0.75368 0.478
vn 0.45109 -0.75368 0.478
vn -0.63954 -0.75365 -0.15168
vn -0.63954 -0.75365 -0.15168
vn -0.63954 -0.75365 -0.15168
vn -0.18842 0.75368 0.62966
vn -0.18842 0.75368 0.62966
vn -0.18842 0.75368 0.62966
vn -0.18842 0.75367 -0.62966
vn -0.18842 0.75367 -0.62966
vn -0.18842 0.75367 -0.62966
vn -0.63954 0.75365 0.15167
vn -0.63954 0.75365 0.15167
vn -0.63954 0.75365 0.15167
vn 0.45108 0.75369 -0.478
vn 0.45108 0.75369 -0.478
vn 0.45108 0.75369 -0.478
vn -0.45108 0.75369 -0.478
vn -0.45108 0.75369 -0.478
vn -0.45108 0.75369 -0.478
vn 0.63954 0.75365 0.15167
vn 0.63954 0.75365 0.15167
vn 0.63954 0.75365 0.15167
vn 0.18842 0.75366 -0.62967
vn 0.18842 0.75366 -0.62967
vn 0.18842 0.75366 -0.62967
vn 0.18842 0.75368 0.62966
vn 0.18842 0.75368 0.62966
vn 0.18842 0.75368 0.62966
vn 0.63954 0.75365 -0.15168
vn 0.63954 0.75365 -0.15168
vn 0.63954 0.75365 -0.15168
vn -0.45109 0.75368 0.47799
vn -0.45109 0.75368 0.47799
vn -0.45109 0.75368 0.47799
vn 0.45108 0.75369 0.478
vn 0.45108 0.75369 0.478
vn 0.45108 0.75369 0.478
vn -0.63954 0.75365 -0.15168
vn -0.63954 0.75365 -0.15168
vn -0.63954 0.75365 -0.15168

# Faces:
usemtl Sternmaterial
f 1/1/1 2/2/2 3/3/3
f 4/4/4 1/1/5 3/3/6
f 5/5/7 1/1/8 4/4/9
f 6/6/10 1/1/11 5/5/12
f 7/7/13 1/1/14 6/6/15
f 1/1/16 7/7/17 8/8/18
f 9/9/19 1/1/20 8/8/21
f 1/1/22 9/9/23 10/10/24
f 11/11/25 1/1/26 10/10/27
f 1/1/28 11/11/29 12/12/30
f 13/13/31 1/1/32 12/12/33
f 1/1/34 13/13/35 2/2/36
f 2/14/37 14/15/38 3/16/39
f 14/15/40 4/17/41 3/16/42
f 14/15/43 5/18/44 4/17/45
f 14/15/46 6/19/47 5/18/48
f 14/15/49 7/20/50 6/19/51
f 7/20/52 14/15/53 8/21/54
f 14/15/55 9/22/56 8/21/57
f 9/22/58 14/15/59 10/23/60
f 14/15/61 11/24/62 10/23/63
f 11/24/64 14/15/65 12/25/66
f 14/15/67 13/26/68 12/25/69
f 13/26/70 14/15/71 2/14/72
